<svg xmlns="http://www.w3.org/2000/svg" width="1100" height="620" viewBox="0 0 1100 620"><defs><marker id="arrow" markerWidth="10" markerHeight="10" refX="9" refY="5" orient="auto"><path d="M0 0 L10 5 L0 10" fill="none" stroke="#233c40" stroke-width="1.4"/></marker></defs><rect width="100%" height="100%" fill="white"/><circle cx="95" cy="180" r="16" fill="white" stroke="#233c40" stroke-width="2"/><path d="M95 196 L95 245 M65 215 L125 215 M95 245 L70 278 M95 245 L120 278" fill="none" stroke="#233c40" stroke-width="2" /><text x="95" y="310" text-anchor="middle" font-family="Arial,sans-serif" font-size="20" fill="#142e33">Creator</text><rect x="200" y="30" width="850" height="540" fill="white" stroke="#233c40" stroke-width="2" /><text x="625.0" y="290.0" text-anchor="middle" font-family="Arial,sans-serif" font-size="22" fill="#142e33"></text><text x="620" y="68" text-anchor="middle" font-family="Arial,sans-serif" font-size="24" fill="#142e33">SkyStride Adventures · planned flows</text><ellipse cx="500" cy="175" rx="235.0" ry="45.0" fill="#f0f5f4" stroke="#233c40" stroke-width="2"/><text x="500" y="170" text-anchor="middle" font-family="Arial,sans-serif" font-size="20" fill="#142e33">UC05 Create and save</text><text x="500" y="197" text-anchor="middle" font-family="Arial,sans-serif" font-size="20" fill="#142e33">a level</text><path d="M125 225 L280 180" fill="none" stroke="#233c40" stroke-width="2" /><ellipse cx="810" cy="360" rx="180.0" ry="45.0" fill="#f0f5f4" stroke="#233c40" stroke-width="2"/><text x="810" y="355" text-anchor="middle" font-family="Arial,sans-serif" font-size="20" fill="#142e33">Place checkpoint</text><text x="810" y="382" text-anchor="middle" font-family="Arial,sans-serif" font-size="20" fill="#142e33">(optional)</text><path d="M700 330 L560 213" fill="none" stroke="#233c40" stroke-width="2" marker-end="url(#arrow)" stroke-dasharray="7 5" /><text x="637.0" y="261.5" text-anchor="middle" font-family="Arial,sans-serif" font-size="16" fill="#142e33">«extend»</text><ellipse cx="480" cy="440" rx="217.5" ry="45.0" fill="#f0f5f4" stroke="#233c40" stroke-width="2"/><text x="480" y="435" text-anchor="middle" font-family="Arial,sans-serif" font-size="20" fill="#142e33">UC06 Activate checkpoint</text><text x="480" y="462" text-anchor="middle" font-family="Arial,sans-serif" font-size="20" fill="#142e33">and respawn</text><path d="M125 240 L280 425" fill="none" stroke="#233c40" stroke-width="2" /><text x="625" y="535" text-anchor="middle" font-family="Arial,sans-serif" font-size="18" fill="#142e33">Checkpoint geometry persists in the saved layout.</text></svg>